<svg width="126" height="10" viewBox="0 0 126 10" fill="none" xmlns="http://www.w3.org/2000/svg">
<path d="M2.412 1.536C2.372 1.496 2.34 1.468 2.316 1.452C2.292 1.436 2.264 1.428 2.232 1.428C2.2 1.428 2.168 1.44 2.136 1.464C2.104 1.488 2.088 1.524 2.088 1.572V7.92H2.208V1.596C2.208 1.588 2.208 1.58 2.208 1.572C2.216 1.564 2.224 1.56 2.232 1.56C2.24 1.56 2.248 1.564 2.256 1.572C2.272 1.58 2.284 1.588 2.292 1.596L6.828 6.684V7.92H6.948V1.44H6.828V6.504L2.412 1.536ZM3.06 9H1.26C1.108 9 0.996 8.968 0.924 8.904C0.86 8.832 0.828 8.72 0.828 8.568V0.792C0.828 0.64 0.86 0.532 0.924 0.468C0.996 0.396 1.108 0.36 1.26 0.36H2.508C2.66 0.36 2.788 0.384 2.892 0.431999C3.004 0.48 3.112 0.564 3.216 0.684L5.544 3.348V0.792C5.544 0.64 5.576 0.532 5.64 0.468C5.712 0.396 5.824 0.36 5.976 0.36H7.776C7.928 0.36 8.036 0.396 8.1 0.468C8.172 0.532 8.208 0.64 8.208 0.792V8.568C8.208 8.72 8.172 8.832 8.1 8.904C8.036 8.968 7.928 9 7.776 9H5.976C5.824 9 5.712 8.968 5.64 8.904C5.576 8.832 5.544 8.72 5.544 8.568V7.092L3.492 4.608V8.568C3.492 8.72 3.456 8.832 3.384 8.904C3.32 8.968 3.212 9 3.06 9ZM15.8632 9H10.2952C10.1432 9 10.0312 8.968 9.95916 8.904C9.89516 8.832 9.86316 8.72 9.86316 8.568V0.792C9.86316 0.64 9.89516 0.532 9.95916 0.468C10.0312 0.396 10.1432 0.36 10.2952 0.36H15.8632C16.0152 0.36 16.1232 0.396 16.1872 0.468C16.2592 0.532 16.2952 0.64 16.2952 0.792V2.196C16.2952 2.348 16.2592 2.46 16.1872 2.532C16.1232 2.596 16.0152 2.628 15.8632 2.628H12.5512V3.552H14.8912C15.0432 3.552 15.1512 3.588 15.2152 3.66C15.2872 3.724 15.3232 3.832 15.3232 3.984V5.268C15.3232 5.42 15.2872 5.532 15.2152 5.604C15.1512 5.668 15.0432 5.7 14.8912 5.7H12.5512V6.732H15.8632C16.0152 6.732 16.1232 6.768 16.1872 6.84C16.2592 6.904 16.2952 7.012 16.2952 7.164V8.568C16.2952 8.72 16.2592 8.832 16.1872 8.904C16.1232 8.968 16.0152 9 15.8632 9ZM15.2152 7.8H11.2912V4.692H14.2432V4.572H11.2912V1.56H15.2152V1.44H11.1712V7.92H15.2152V7.8ZM22.1547 4.86H21.6147C21.4867 4.86 21.3827 4.9 21.3027 4.98C21.2227 5.052 21.1307 5.2 21.0267 5.424L20.0427 7.632C20.0107 7.712 19.9627 7.76 19.8987 7.776C19.8347 7.792 19.7747 7.8 19.7187 7.8H19.6587C19.5947 7.8 19.5347 7.776 19.4787 7.728C19.4227 7.672 19.3907 7.612 19.3827 7.548L19.0827 6.18C19.0507 6.028 19.0307 5.832 19.0227 5.592C19.0227 5.352 19.0227 5.144 19.0227 4.968V1.44H18.9027V4.98C18.9027 5.156 18.9027 5.364 18.9027 5.604C18.9107 5.844 18.9307 6.04 18.9627 6.192L19.2627 7.548C19.2947 7.676 19.3427 7.772 19.4067 7.836C19.4787 7.892 19.5627 7.92 19.6587 7.92H19.7427C19.8147 7.92 19.8907 7.908 19.9707 7.884C20.0507 7.852 20.1067 7.796 20.1387 7.716L21.1227 5.484C21.2187 5.268 21.2987 5.132 21.3627 5.076C21.4347 5.012 21.5187 4.98 21.6147 4.98H22.1547C22.2507 4.98 22.3307 5.012 22.3947 5.076C22.4667 5.132 22.5507 5.268 22.6467 5.484L23.6307 7.716C23.6627 7.796 23.7187 7.852 23.7987 7.884C23.8787 7.908 23.9547 7.92 24.0267 7.92H24.1107C24.2067 7.92 24.2867 7.892 24.3507 7.836C24.4227 7.772 24.4747 7.676 24.5067 7.548L24.8067 6.192C24.8387 6.04 24.8547 5.844 24.8547 5.604C24.8627 5.364 24.8667 5.156 24.8667 4.98V1.44H24.7467V4.968C24.7467 5.144 24.7427 5.352 24.7347 5.592C24.7347 5.832 24.7187 6.028 24.6867 6.18L24.3867 7.548C24.3787 7.612 24.3467 7.672 24.2907 7.728C24.2347 7.776 24.1747 7.8 24.1107 7.8H24.0507C23.9947 7.8 23.9347 7.792 23.8707 7.776C23.8067 7.76 23.7587 7.712 23.7267 7.632L22.7427 5.424C22.6387 5.2 22.5467 5.052 22.4667 4.98C22.3867 4.9 22.2827 4.86 22.1547 4.86ZM23.9187 0.36H25.7067C25.8587 0.36 25.9667 0.396 26.0307 0.468C26.1027 0.532 26.1387 0.64 26.1387 0.792V5.448C26.1387 5.704 26.1267 5.944 26.1027 6.168C26.0867 6.384 26.0267 6.64 25.9227 6.936L25.3227 8.568C25.2827 8.688 25.2227 8.792 25.1427 8.88C25.0707 8.96 24.9707 9 24.8427 9H23.2467C23.1187 9 23.0027 8.972 22.8987 8.916C22.7947 8.86 22.7267 8.768 22.6947 8.64L22.1427 6.684C22.1187 6.604 22.0867 6.552 22.0467 6.528C22.0147 6.496 21.9747 6.48 21.9267 6.48H21.8187C21.7707 6.48 21.7267 6.496 21.6867 6.528C21.6547 6.552 21.6267 6.604 21.6027 6.684L21.0387 8.64C21.0067 8.76 20.9467 8.852 20.8587 8.916C20.7707 8.972 20.6627 9 20.5347 9H18.9507C18.8227 9 18.7107 8.96 18.6147 8.88C18.5267 8.8 18.4627 8.696 18.4227 8.568L17.8227 6.912C17.7187 6.616 17.6547 6.36 17.6307 6.144C17.6147 5.92 17.6067 5.68 17.6067 5.424V0.792C17.6067 0.64 17.6387 0.532 17.7027 0.468C17.7747 0.396 17.8867 0.36 18.0387 0.36H19.8867C20.0387 0.36 20.1467 0.396 20.2107 0.468C20.2827 0.532 20.3187 0.64 20.3187 0.792V5.208L21.0147 3.696C21.0787 3.56 21.1627 3.464 21.2667 3.408C21.3707 3.352 21.4987 3.324 21.6507 3.324H22.1547C22.3067 3.324 22.4347 3.352 22.5387 3.408C22.6427 3.464 22.7267 3.56 22.7907 3.696L23.4867 5.208V0.792C23.4867 0.64 23.5187 0.532 23.5827 0.468C23.6547 0.396 23.7667 0.36 23.9187 0.36Z" fill="#FFAA21"/>
<path d="M36.1307 9H33.2027C32.2027 9 31.4587 8.8 30.9707 8.4C30.4907 8 30.2507 7.384 30.2507 6.552V2.82C30.2507 1.988 30.4907 1.372 30.9707 0.972C31.4587 0.564 32.2027 0.36 33.2027 0.36H36.1307C36.2827 0.36 36.3907 0.396 36.4547 0.468C36.5267 0.532 36.5627 0.64 36.5627 0.792V2.244C36.5627 2.396 36.5267 2.508 36.4547 2.58C36.3907 2.644 36.2827 2.676 36.1307 2.676H33.7187C33.4707 2.676 33.2867 2.728 33.1667 2.832C33.0467 2.928 32.9867 3.076 32.9867 3.276V6.132C32.9867 6.332 33.0467 6.48 33.1667 6.576C33.2867 6.664 33.4707 6.708 33.7187 6.708H36.1307C36.2827 6.708 36.3907 6.744 36.4547 6.816C36.5267 6.88 36.5627 6.988 36.5627 7.14V8.568C36.5627 8.72 36.5267 8.832 36.4547 8.904C36.3907 8.968 36.2827 9 36.1307 9ZM35.4707 7.8H33.4667C32.7467 7.8 32.2667 7.692 32.0267 7.476C31.7867 7.26 31.6667 6.892 31.6667 6.372V3.012C31.6667 2.484 31.7907 2.112 32.0387 1.896C32.2867 1.672 32.7627 1.56 33.4667 1.56H35.4707V1.44H33.4667C32.6987 1.44 32.1867 1.56 31.9307 1.8C31.6747 2.04 31.5467 2.444 31.5467 3.012V6.372C31.5467 6.924 31.6707 7.32 31.9187 7.56C32.1747 7.8 32.6907 7.92 33.4667 7.92H35.4707V7.8ZM39.1298 5.364C39.1298 5.148 39.1458 4.948 39.1778 4.764C39.2178 4.58 39.2658 4.408 39.3218 4.248L40.0898 2.28C40.1698 2.08 40.2578 1.912 40.3538 1.776C40.4498 1.632 40.6178 1.56 40.8578 1.56H42.0338C42.2578 1.56 42.4178 1.632 42.5138 1.776C42.6098 1.912 42.7018 2.084 42.7898 2.292L43.6178 4.248C43.6738 4.408 43.7178 4.58 43.7498 4.764C43.7898 4.948 43.8098 5.148 43.8098 5.364V5.736H39.1298V5.364ZM41.0498 2.88L40.4858 4.704H42.3698L41.8058 2.88C41.7738 2.808 41.7378 2.756 41.6978 2.724C41.6658 2.692 41.6258 2.676 41.5778 2.676H41.2778C41.2298 2.676 41.1858 2.692 41.1458 2.724C41.1138 2.756 41.0818 2.808 41.0498 2.88ZM43.8098 7.92H43.9298V5.364C43.9298 5.14 43.9098 4.936 43.8698 4.752C43.8378 4.56 43.7898 4.376 43.7258 4.2L42.8978 2.244C42.8018 2.012 42.6978 1.82 42.5858 1.668C42.4818 1.516 42.2978 1.44 42.0338 1.44H40.8578C40.5858 1.44 40.3938 1.516 40.2818 1.668C40.1698 1.82 40.0698 2.008 39.9818 2.232L39.2138 4.2C39.1498 4.376 39.0978 4.56 39.0578 4.752C39.0258 4.936 39.0098 5.14 39.0098 5.364V7.92H39.1298V5.856H43.8098V7.92ZM40.3658 8.568C40.3658 8.72 40.3298 8.832 40.2578 8.904C40.1938 8.968 40.0858 9 39.9338 9H38.1698C38.0178 9 37.9058 8.968 37.8338 8.904C37.7698 8.832 37.7378 8.72 37.7378 8.568V5.4C37.7378 5.16 37.7738 4.884 37.8458 4.572C37.9258 4.26 38.0458 3.896 38.2058 3.48L39.2498 0.756C39.2978 0.619999 39.3698 0.52 39.4658 0.456C39.5698 0.392 39.7018 0.36 39.8618 0.36H43.0898C43.2418 0.36 43.3658 0.392 43.4618 0.456C43.5658 0.52 43.6418 0.619999 43.6898 0.756L44.7338 3.48C44.8938 3.896 45.0098 4.26 45.0818 4.572C45.1618 4.884 45.2018 5.16 45.2018 5.4V8.568C45.2018 8.72 45.1658 8.832 45.0938 8.904C45.0298 8.968 44.9218 9 44.7698 9H42.9578C42.7978 9 42.6778 8.968 42.5978 8.904C42.5258 8.832 42.4898 8.72 42.4898 8.568V6.888H40.3658V8.568ZM48.9755 9H47.1155C46.9635 9 46.8515 8.968 46.7795 8.904C46.7155 8.832 46.6835 8.72 46.6835 8.568V0.792C46.6835 0.64 46.7155 0.532 46.7795 0.468C46.8515 0.396 46.9635 0.36 47.1155 0.36H52.4675C52.6195 0.36 52.7275 0.396 52.7915 0.468C52.8635 0.532 52.8995 0.64 52.8995 0.792V2.22C52.8995 2.372 52.8635 2.484 52.7915 2.556C52.7275 2.62 52.6195 2.652 52.4675 2.652H49.4075V3.9H51.4955C51.6475 3.9 51.7555 3.936 51.8195 4.008C51.8915 4.072 51.9275 4.18 51.9275 4.332V5.772C51.9275 5.924 51.8915 6.036 51.8195 6.108C51.7555 6.172 51.6475 6.204 51.4955 6.204H49.4075V8.568C49.4075 8.72 49.3715 8.832 49.2995 8.904C49.2355 8.968 49.1275 9 48.9755 9ZM47.9915 7.92H48.1115V5.112H50.8475V4.992H48.1115V1.56H51.8195V1.44H47.9915V7.92ZM60.1014 9H54.5334C54.3814 9 54.2694 8.968 54.1974 8.904C54.1334 8.832 54.1014 8.72 54.1014 8.568V0.792C54.1014 0.64 54.1334 0.532 54.1974 0.468C54.2694 0.396 54.3814 0.36 54.5334 0.36H60.1014C60.2534 0.36 60.3614 0.396 60.4254 0.468C60.4974 0.532 60.5334 0.64 60.5334 0.792V2.196C60.5334 2.348 60.4974 2.46 60.4254 2.532C60.3614 2.596 60.2534 2.628 60.1014 2.628H56.7894V3.552H59.1294C59.2814 3.552 59.3894 3.588 59.4534 3.66C59.5254 3.724 59.5614 3.832 59.5614 3.984V5.268C59.5614 5.42 59.5254 5.532 59.4534 5.604C59.3894 5.668 59.2814 5.7 59.1294 5.7H56.7894V6.732H60.1014C60.2534 6.732 60.3614 6.768 60.4254 6.84C60.4974 6.904 60.5334 7.012 60.5334 7.164V8.568C60.5334 8.72 60.4974 8.832 60.4254 8.904C60.3614 8.968 60.2534 9 60.1014 9ZM59.4534 7.8H55.5294V4.692H58.4814V4.572H55.5294V1.56H59.4534V1.44H55.4094V7.92H59.4534V7.8ZM65.9443 7.92H66.0643V4.74H70.6723V7.92H70.7923V1.44H70.6723V4.62H66.0643V1.44H65.9443V7.92ZM66.9403 9H65.0803C64.9283 9 64.8163 8.968 64.7443 8.904C64.6803 8.832 64.6483 8.72 64.6483 8.568V0.792C64.6483 0.64 64.6803 0.532 64.7443 0.468C64.8163 0.396 64.9283 0.36 65.0803 0.36H66.9403C67.0923 0.36 67.2003 0.396 67.2643 0.468C67.3363 0.532 67.3723 0.64 67.3723 0.792V3.396H69.3763V0.792C69.3763 0.64 69.4083 0.532 69.4723 0.468C69.5443 0.396 69.6563 0.36 69.8083 0.36H71.6683C71.8203 0.36 71.9283 0.396 71.9923 0.468C72.0643 0.532 72.1003 0.64 72.1003 0.792V8.568C72.1003 8.72 72.0643 8.832 71.9923 8.904C71.9283 8.968 71.8203 9 71.6683 9H69.8083C69.6563 9 69.5443 8.968 69.4723 8.904C69.4083 8.832 69.3763 8.72 69.3763 8.568V5.904H67.3723V8.568C67.3723 8.72 67.3363 8.832 67.2643 8.904C67.2003 8.968 67.0923 9 66.9403 9ZM73.9938 9C73.8418 9 73.7298 8.968 73.6578 8.904C73.5938 8.832 73.5618 8.72 73.5618 8.568V7.14C73.5618 6.988 73.5938 6.88 73.6578 6.816C73.7298 6.744 73.8418 6.708 73.9938 6.708H75.1818V2.676H73.9938C73.8418 2.676 73.7298 2.644 73.6578 2.58C73.5938 2.508 73.5618 2.396 73.5618 2.244V0.792C73.5618 0.64 73.5938 0.532 73.6578 0.468C73.7298 0.396 73.8418 0.36 73.9938 0.36H79.1058C79.2578 0.36 79.3658 0.396 79.4298 0.468C79.5018 0.532 79.5378 0.64 79.5378 0.792V2.244C79.5378 2.396 79.5018 2.508 79.4298 2.58C79.3658 2.644 79.2578 2.676 79.1058 2.676H77.9418V6.708H79.1058C79.2578 6.708 79.3658 6.744 79.4298 6.816C79.5018 6.88 79.5378 6.988 79.5378 7.14V8.568C79.5378 8.72 79.5018 8.832 79.4298 8.904C79.3658 8.968 79.2578 9 79.1058 9H73.9938ZM78.4578 7.92V7.8H76.6218V1.56H78.4578V1.44H74.6418V1.56H76.5018V7.8H74.6418V7.92H78.4578ZM85.4954 9H81.4514C81.2994 9 81.1874 8.968 81.1154 8.904C81.0514 8.832 81.0194 8.72 81.0194 8.568V0.792C81.0194 0.64 81.0514 0.532 81.1154 0.468C81.1874 0.396 81.2994 0.36 81.4514 0.36H85.4954C86.4954 0.36 87.2354 0.56 87.7154 0.96C88.2034 1.36 88.4474 1.976 88.4474 2.808V6.552C88.4474 7.384 88.2034 8 87.7154 8.4C87.2354 8.8 86.4954 9 85.4954 9ZM82.3274 7.92H85.2314C85.6394 7.92 85.9714 7.88 86.2274 7.8C86.4834 7.712 86.6794 7.596 86.8154 7.452C86.9514 7.308 87.0394 7.136 87.0794 6.936C87.1274 6.736 87.1514 6.52 87.1514 6.288V3.108C87.1514 2.876 87.1274 2.66 87.0794 2.46C87.0314 2.252 86.9394 2.076 86.8034 1.932C86.6674 1.78 86.4714 1.66 86.2154 1.572C85.9674 1.484 85.6394 1.44 85.2314 1.44H82.3274V7.92ZM85.2314 1.56C85.6074 1.56 85.9114 1.6 86.1434 1.68C86.3834 1.76 86.5674 1.868 86.6954 2.004C86.8234 2.14 86.9114 2.304 86.9594 2.496C87.0074 2.688 87.0314 2.892 87.0314 3.108V6.288C87.0314 6.504 87.0074 6.708 86.9594 6.9C86.9194 7.084 86.8354 7.244 86.7074 7.38C86.5794 7.508 86.3954 7.612 86.1554 7.692C85.9234 7.764 85.6154 7.8 85.2314 7.8H82.4474V1.56H85.2314ZM83.7434 2.652V6.732H85.1714C85.3634 6.732 85.5034 6.684 85.5914 6.588C85.6874 6.492 85.7354 6.344 85.7354 6.144V3.228C85.7354 3.028 85.6874 2.884 85.5914 2.796C85.5034 2.7 85.3634 2.652 85.1714 2.652H83.7434ZM95.9725 9H90.4045C90.2525 9 90.1405 8.968 90.0685 8.904C90.0045 8.832 89.9725 8.72 89.9725 8.568V0.792C89.9725 0.64 90.0045 0.532 90.0685 0.468C90.1405 0.396 90.2525 0.36 90.4045 0.36H95.9725C96.1245 0.36 96.2325 0.396 96.2965 0.468C96.3685 0.532 96.4045 0.64 96.4045 0.792V2.196C96.4045 2.348 96.3685 2.46 96.2965 2.532C96.2325 2.596 96.1245 2.628 95.9725 2.628H92.6605V3.552H95.0005C95.1525 3.552 95.2605 3.588 95.3245 3.66C95.3965 3.724 95.4325 3.832 95.4325 3.984V5.268C95.4325 5.42 95.3965 5.532 95.3245 5.604C95.2605 5.668 95.1525 5.7 95.0005 5.7H92.6605V6.732H95.9725C96.1245 6.732 96.2325 6.768 96.2965 6.84C96.3685 6.904 96.4045 7.012 96.4045 7.164V8.568C96.4045 8.72 96.3685 8.832 96.2965 8.904C96.2325 8.968 96.1245 9 95.9725 9ZM95.3245 7.8H91.4005V4.692H94.3525V4.572H91.4005V1.56H95.3245V1.44H91.2805V7.92H95.3245V7.8ZM107.839 6.732C107.839 7.1 107.783 7.436 107.671 7.74C107.567 8.036 107.375 8.292 107.095 8.508C106.823 8.716 106.443 8.88 105.955 9C105.475 9.12 104.863 9.18 104.119 9.18C103.375 9.18 102.759 9.12 102.271 9C101.783 8.88 101.399 8.716 101.119 8.508C100.847 8.292 100.655 8.036 100.543 7.74C100.439 7.436 100.387 7.1 100.387 6.732V2.64C100.387 2.272 100.439 1.94 100.543 1.644C100.655 1.34 100.847 1.08 101.119 0.864C101.399 0.648 101.783 0.48 102.271 0.36C102.759 0.24 103.375 0.18 104.119 0.18C104.863 0.18 105.475 0.24 105.955 0.36C106.443 0.48 106.823 0.648 107.095 0.864C107.375 1.08 107.567 1.34 107.671 1.644C107.783 1.94 107.839 2.272 107.839 2.64V6.732ZM106.531 6.456V2.916C106.531 2.436 106.359 2.048 106.015 1.752C105.671 1.448 105.031 1.296 104.095 1.296C103.159 1.296 102.523 1.448 102.187 1.752C101.851 2.048 101.683 2.436 101.683 2.916V6.456C101.683 6.936 101.851 7.328 102.187 7.632C102.523 7.928 103.159 8.076 104.095 8.076C105.031 8.076 105.671 7.928 106.015 7.632C106.359 7.328 106.531 6.936 106.531 6.456ZM101.803 6.456V2.916C101.803 2.468 101.963 2.108 102.283 1.836C102.603 1.556 103.207 1.416 104.095 1.416C104.983 1.416 105.591 1.556 105.919 1.836C106.247 2.108 106.411 2.468 106.411 2.916V6.456C106.411 6.904 106.247 7.268 105.919 7.548C105.591 7.82 104.983 7.956 104.095 7.956C103.207 7.956 102.603 7.82 102.283 7.548C101.963 7.268 101.803 6.904 101.803 6.456ZM103.111 6.3C103.111 6.46 103.171 6.596 103.291 6.708C103.411 6.812 103.687 6.864 104.119 6.864C104.551 6.864 104.827 6.812 104.947 6.708C105.067 6.596 105.127 6.46 105.127 6.3V3.072C105.127 2.92 105.067 2.792 104.947 2.688C104.827 2.576 104.551 2.52 104.119 2.52C103.687 2.52 103.411 2.576 103.291 2.688C103.171 2.792 103.111 2.92 103.111 3.072V6.3ZM116.723 6.732C116.723 7.1 116.667 7.436 116.555 7.74C116.451 8.036 116.259 8.292 115.979 8.508C115.707 8.716 115.331 8.88 114.851 9C114.371 9.12 113.759 9.18 113.015 9.18C112.271 9.18 111.659 9.12 111.179 9C110.699 8.88 110.319 8.716 110.039 8.508C109.767 8.292 109.575 8.036 109.463 7.74C109.359 7.436 109.307 7.1 109.307 6.732V0.792C109.307 0.64 109.339 0.532 109.403 0.468C109.475 0.396 109.587 0.36 109.739 0.36H111.623C111.775 0.36 111.883 0.396 111.947 0.468C112.019 0.532 112.055 0.64 112.055 0.792V6.264C112.055 6.424 112.115 6.56 112.235 6.672C112.355 6.776 112.623 6.828 113.039 6.828C113.463 6.828 113.735 6.776 113.855 6.672C113.975 6.56 114.035 6.424 114.035 6.264V0.792C114.035 0.64 114.067 0.532 114.131 0.468C114.203 0.396 114.315 0.36 114.467 0.36H116.291C116.443 0.36 116.551 0.396 116.615 0.468C116.687 0.532 116.723 0.64 116.723 0.792V6.732ZM110.627 1.44V6.444C110.627 6.924 110.791 7.316 111.119 7.62C111.455 7.916 112.091 8.064 113.027 8.064C113.963 8.064 114.599 7.916 114.935 7.62C115.271 7.316 115.439 6.924 115.439 6.444V1.44H115.319V6.444C115.319 6.892 115.159 7.256 114.839 7.536C114.519 7.808 113.915 7.944 113.027 7.944C112.139 7.944 111.535 7.808 111.215 7.536C110.903 7.256 110.747 6.892 110.747 6.444V1.44H110.627ZM122.4 9H120.456C120.304 9 120.192 8.968 120.12 8.904C120.056 8.832 120.024 8.72 120.024 8.568V2.676H118.26C118.108 2.676 117.996 2.644 117.924 2.58C117.86 2.508 117.828 2.396 117.828 2.244V0.792C117.828 0.64 117.86 0.532 117.924 0.468C117.996 0.396 118.108 0.36 118.26 0.36H124.596C124.748 0.36 124.856 0.396 124.92 0.468C124.992 0.532 125.028 0.64 125.028 0.792V2.244C125.028 2.396 124.992 2.508 124.92 2.58C124.856 2.644 124.748 2.676 124.596 2.676H122.832V8.568C122.832 8.72 122.796 8.832 122.724 8.904C122.66 8.968 122.552 9 122.4 9ZM121.368 7.92H121.488V1.56H123.948V1.44H118.908V1.56H121.368V7.92Z" fill="black"/>
</svg>
